<?xml version="1.0" standalone="no"?>
<!DOCTYPE svg PUBLIC "-//W3C//DTD SVG 20010904//EN"
 "http://www.w3.org/TR/2001/REC-SVG-20010904/DTD/svg10.dtd">
<svg version="1.0" xmlns="http://www.w3.org/2000/svg"
 width="820.000000pt" height="820.000000pt" viewBox="0 0 820.000000 820.000000"
 preserveAspectRatio="xMidYMid meet">

<g transform="translate(0.000000,820.000000) scale(0.100000,-0.100000)"
fill="#000000" stroke="none">
<path d="M0 4100 l0 -4100 4100 0 4100 0 0 4100 0 4100 -4100 0 -4100 0 0
-4100z m2240 3416 c0 -2 -8 -10 -17 -17 -16 -13 -17 -12 -4 4 13 16 21 21 21
13z m1644 -741 c-4 -8 -11 -12 -16 -9 -6 4 -5 10 3 15 19 12 19 11 13 -6z
m-194 -145 c0 -5 -2 -10 -4 -10 -3 0 -8 5 -11 10 -3 6 -1 10 4 10 6 0 11 -4
11 -10z m-45 -31 c10 -15 -1 -23 -20 -15 -9 3 -13 10 -10 16 8 13 22 13 30 -1z
m-165 -60 c0 -6 9 -8 23 -4 21 7 21 6 5 -10 -15 -17 -17 -16 -39 4 -19 17 -20
21 -6 21 9 0 17 -5 17 -11z m105 -9 c10 -11 16 -20 13 -20 -3 0 -13 9 -23 20
-10 11 -16 20 -13 20 3 0 13 -9 23 -20z m-123 -68 c4 -26 2 -27 -19 -18 -28
13 -31 46 -4 46 13 0 20 -9 23 -28z m-82 -22 c0 -5 -2 -10 -4 -10 -3 0 -8 5
-11 10 -3 6 -1 10 4 10 6 0 11 -4 11 -10z m37 -16 c14 -14 14 -16 -5 -21 -14
-3 -19 -11 -15 -21 3 -11 -4 -7 -17 8 -19 21 -20 25 -6 28 9 2 16 8 16 13 0
13 9 11 27 -7z m-177 -150 c0 -2 -9 -4 -20 -4 -11 0 -20 4 -20 9 0 5 9 7 20 4
11 -3 20 -7 20 -9z m-208 -54 c2 -6 39 -12 86 -13 67 -2 81 0 77 12 -4 11 -2
11 9 2 8 -7 12 -22 9 -34 -4 -17 -2 -19 5 -8 9 12 13 12 27 -2 19 -20 40 -23
29 -4 -5 6 11 -6 34 -28 23 -21 42 -45 42 -52 0 -6 6 -16 13 -20 6 -4 18 -18
25 -30 10 -19 10 -23 0 -23 -8 -1 -5 -7 6 -15 12 -9 16 -20 12 -32 -6 -15 -8
-15 -16 -3 -7 11 -9 10 -7 -7 0 -12 5 -19 11 -16 5 4 7 -1 3 -11 -5 -14 -3
-16 12 -11 11 3 22 2 25 -3 3 -6 -1 -9 -10 -8 -9 0 -23 -10 -32 -24 -11 -17
-11 -21 -2 -12 21 19 32 14 24 -10 -6 -21 -6 -22 12 -8 18 14 18 14 4 -5 -8
-11 -16 -22 -17 -24 -2 -3 -10 4 -19 15 -14 17 -15 18 -10 1 3 -10 6 -22 6
-27 0 -4 7 -11 16 -14 8 -3 12 -2 9 4 -3 6 -2 10 4 10 5 0 15 -17 21 -37 7
-21 20 -46 28 -56 15 -16 14 -17 -1 -11 -20 7 -21 1 -6 -27 5 -11 14 -17 19
-14 4 3 6 -4 3 -15 -3 -11 -11 -20 -19 -20 -8 0 -11 -6 -8 -15 4 -8 1 -22 -5
-29 -10 -11 -8 -15 6 -18 22 -5 -79 -36 -161 -49 -34 -6 -79 -17 -101 -26
-115 -45 -133 -61 -126 -108 10 -71 6 -202 -8 -218 -7 -10 -10 -17 -6 -17 5 0
1 -8 -7 -17 -13 -16 -29 -47 -32 -63 -2 -8 -47 -123 -63 -158 -11 -26 -12 -36
-3 -48 9 -9 9 -14 1 -14 -13 0 -43 -55 -34 -63 8 -8 -17 -67 -28 -67 -5 0 -9
-11 -9 -24 0 -39 -18 -40 -40 -4 -25 40 -21 63 27 165 35 75 113 300 113 326
0 18 -57 28 -65 13 -3 -6 -4 1 -2 16 3 19 0 25 -10 21 -8 -3 -19 9 -29 33 -14
36 -31 74 -43 98 -2 6 21 -5 53 -23 32 -18 60 -30 62 -28 4 4 -61 72 -110 114
-33 28 -34 83 -6 197 10 43 22 115 25 160 4 44 16 117 27 161 12 44 22 87 22
97 1 9 7 22 13 30 6 7 16 39 23 71 11 56 20 65 63 58 4 0 7 4 7 9 0 13 17 13
22 0z m511 -514 c-3 -4 -9 -2 -14 5 -13 22 -11 31 5 17 8 -7 12 -17 9 -22z
m-103 -257 c0 -4 -6 -10 -12 -13 -7 -3 -4 -5 7 -5 34 2 38 -1 25 -16 -10 -12
-9 -15 8 -15 16 0 19 -5 15 -22 -7 -26 -36 -58 -55 -59 -7 0 3 -7 22 -14 l35
-13 -29 -1 c-27 -1 -28 -2 -12 -14 15 -11 16 -15 5 -19 -24 -8 -113 -8 -127 0
-17 11 -6 37 21 51 20 9 18 11 -18 10 -62 -1 -63 -1 -57 26 6 35 52 67 76 53
14 -8 17 -7 14 3 -3 8 9 23 25 35 31 21 57 27 57 13z m-125 -277 c0 -13 7 -16
28 -14 16 2 35 -2 43 -9 8 -7 30 -9 54 -6 50 6 43 -9 -11 -23 -52 -14 -40 -31
20 -29 26 1 53 -1 61 -6 9 -5 11 -4 6 3 -11 18 81 4 131 -20 31 -14 40 -24 37
-36 -4 -11 -3 -13 3 -6 13 18 53 27 67 15 11 -9 12 -6 8 14 -3 17 -9 24 -18
21 -22 -8 -16 2 7 15 15 8 19 8 15 0 -4 -6 -2 -11 4 -11 6 0 9 -4 6 -8 -3 -5
1 -20 9 -35 11 -22 11 -27 1 -27 -8 0 -21 -11 -30 -25 -9 -14 -21 -23 -26 -20
-5 3 -11 1 -15 -5 -3 -5 -2 -10 2 -10 5 0 9 -9 10 -20 1 -11 -2 -20 -7 -20 -4
0 -11 -11 -14 -24 -4 -18 -11 -23 -26 -19 -11 3 -20 0 -20 -6 0 -6 5 -11 11
-11 7 0 6 -8 -4 -22 -8 -13 -20 -22 -26 -21 -11 3 -19 -21 -24 -67 -1 -13 -9
-32 -17 -42 -14 -17 -15 -17 -22 -1 -6 17 -7 17 -9 1 -1 -10 -3 -22 -4 -28 -1
-5 -3 -17 -4 -26 -1 -11 -7 -14 -18 -10 -15 5 -14 3 2 -10 20 -16 20 -16 -4
-11 -21 5 -23 3 -17 -25 5 -23 3 -29 -8 -25 -14 6 -16 -8 -5 -28 5 -9 5 -34 0
-83 0 -7 -5 -11 -10 -8 -4 3 -6 -6 -3 -21 4 -20 2 -24 -8 -18 -10 6 -12 4 -7
-9 7 -17 -3 -41 -35 -84 -9 -13 -14 -31 -11 -40 3 -12 2 -13 -4 -4 -5 7 -20
14 -33 17 -12 2 -30 11 -40 20 -16 14 -41 15 -107 4 -30 -5 -53 3 -53 19 0 11
-3 13 -8 5 -5 -8 -20 -9 -54 -2 -35 8 -58 7 -97 -5 -55 -16 -65 -11 -55 29 3
14 -2 75 -12 135 -10 60 -15 112 -11 116 7 7 15 4 82 -33 17 -9 39 -21 49 -26
23 -11 76 -16 76 -7 0 4 6 7 14 7 25 0 106 58 112 81 7 24 -19 105 -41 132 -7
8 -16 25 -19 38 -4 12 -11 22 -16 22 -23 0 -44 91 -30 130 1 3 3 12 4 20 0 9
9 14 21 13 11 -1 14 0 8 3 -7 3 -13 14 -13 24 0 20 36 34 45 16 3 -6 3 0 0 14
-2 14 0 32 5 39 4 8 4 24 0 37 -7 17 -3 28 18 51 29 31 37 32 37 5z m495 -107
c0 -8 -4 -15 -10 -15 -5 0 -7 7 -4 15 4 8 8 15 10 15 2 0 4 -7 4 -15z m-327
-871 c-2 -7 -23 -12 -46 -12 -43 0 -123 -27 -189 -62 -27 -15 -37 -17 -40 -8
-4 10 -8 10 -19 1 -19 -16 -79 -22 -107 -12 -25 10 -30 51 -10 94 11 25 41 34
53 15 3 -5 34 -8 68 -6 80 6 108 -1 99 -22 -5 -15 -4 -15 11 -3 9 7 25 11 35
9 11 -3 36 3 57 13 21 11 45 19 52 19 7 0 13 8 13 18 1 13 4 11 14 -7 8 -14
12 -30 9 -37z m-336 -155 c7 -7 31 -13 55 -15 66 -5 78 -8 78 -17 0 -5 6 -7
13 -4 7 3 21 -1 32 -9 22 -16 39 -18 30 -4 -3 6 1 7 9 4 9 -3 16 -13 16 -21 0
-8 9 -17 19 -20 22 -6 35 -43 21 -57 -6 -6 -10 -18 -10 -28 0 -10 -8 -21 -17
-25 -31 -11 -73 -62 -66 -81 5 -13 3 -14 -7 -5 -9 8 -17 6 -31 -8 -24 -24 -24
-33 -1 -25 16 7 16 6 -1 -11 -11 -11 -20 -14 -25 -8 -9 13 -35 18 -27 5 3 -5
1 -10 -4 -10 -6 0 -22 17 -36 38 -20 30 -27 58 -34 133 -5 52 -16 113 -24 137
-15 42 -11 52 10 31z m863 -540 c0 -6 7 -8 16 -5 11 4 15 2 11 -8 -5 -12 11
-26 33 -30 18 -3 71 -51 61 -54 -8 -3 -5 -9 8 -19 12 -8 27 -11 34 -7 9 6 9 4
1 -7 -6 -8 -8 -25 -3 -39 4 -14 7 -22 8 -17 2 13 51 -24 51 -39 0 -7 10 -20
23 -29 21 -16 21 -17 1 -11 -14 4 -21 2 -21 -8 0 -9 5 -12 10 -9 6 4 8 0 4
-10 -3 -10 -2 -17 3 -17 6 0 10 -9 10 -19 0 -11 6 -22 13 -24 7 -3 5 -6 -5 -6
-10 -1 -18 -6 -18 -12 0 -6 12 -8 33 -5 l32 6 -35 -14 c-29 -11 -36 -11 -38 0
-5 19 -22 18 -22 -1 0 -9 -6 -15 -12 -14 -24 4 -98 -13 -93 -21 3 -4 -3 -7
-12 -6 -28 2 -58 34 -83 87 -13 27 -27 49 -31 49 -12 0 -80 100 -112 165 -26
51 -31 75 -35 157 -5 95 -4 96 19 100 19 3 38 -10 87 -59 34 -34 62 -68 62
-74z m591 -589 c6 0 7 -4 4 -10 -3 -5 -2 -10 4 -10 6 0 10 -28 8 -73 -2 -64 0
-73 14 -70 10 3 24 -5 33 -19 11 -15 19 -19 24 -12 4 6 15 10 25 8 10 -1 21 4
23 11 7 18 44 -18 44 -42 0 -15 2 -16 10 -3 8 12 10 12 15 -2 9 -23 2 -51 -15
-65 -13 -10 -12 -14 5 -28 17 -14 17 -16 2 -11 -15 5 -16 2 -7 -14 7 -14 7
-20 0 -20 -5 0 -10 5 -10 10 0 6 -6 5 -14 -2 -8 -7 -12 -16 -10 -20 2 -3 -3
-13 -11 -21 -19 -19 -19 -27 -2 -27 8 0 14 -7 14 -15 0 -8 -4 -15 -9 -15 -4 0
-8 4 -8 9 0 5 -7 12 -16 15 -14 5 -15 4 -5 -8 9 -11 8 -15 -4 -20 -8 -3 -21
-3 -29 0 -8 3 -17 0 -21 -6 -4 -7 0 -10 11 -8 32 5 28 -29 -5 -45 -28 -14 -31
-14 -32 1 0 13 -3 11 -9 -5 -5 -12 -17 -26 -27 -33 -14 -9 -8 -10 32 -6 l50 6
-23 -22 c-19 -20 -24 -21 -32 -8 -7 10 -10 11 -10 2 0 -7 7 -15 15 -18 8 -4
15 -10 15 -15 0 -5 -7 -9 -15 -9 -8 0 -15 5 -15 12 0 6 -3 8 -7 5 -3 -4 1 -15
11 -26 16 -17 15 -19 -8 -35 -31 -20 -55 -59 -31 -50 8 4 15 2 15 -4 0 -6 -15
-14 -32 -18 l-33 -7 25 -9 25 -10 -24 -9 c-26 -10 -61 -3 -61 12 0 5 -5 9 -11
9 -17 0 10 -29 43 -46 25 -13 27 -13 21 3 -5 14 -3 16 7 6 16 -14 5 -47 -12
-38 -7 4 -5 0 5 -8 23 -19 22 -24 -12 -32 -16 -3 -32 -13 -35 -22 -5 -12 -3
-13 7 -5 7 6 18 7 26 3 10 -6 8 -16 -8 -47 -12 -21 -21 -49 -21 -61 0 -12 -4
-24 -9 -28 -5 -3 -13 -20 -16 -38 -4 -17 -13 -45 -20 -62 -25 -61 -97 -283
-120 -374 -14 -52 -26 -96 -29 -98 -7 -7 -63 119 -79 177 -9 30 -23 96 -32
145 -19 102 -45 197 -58 206 -5 3 -8 8 -6 10 1 2 -1 27 -6 54 -12 81 -11 115
7 205 15 76 20 113 33 250 4 45 47 140 74 164 12 11 21 25 21 33 0 7 8 21 18
32 9 10 30 35 46 55 21 26 32 33 38 24 5 -9 8 -6 8 9 0 12 5 25 10 28 6 4 8
11 5 16 -4 5 -2 9 3 9 14 0 54 113 47 131 -4 10 3 22 20 33 14 9 23 21 20 26
-3 5 3 9 12 10 50 2 63 6 63 20 1 8 7 3 16 -12 8 -16 19 -28 25 -28z m44 -540
c3 -5 -1 -10 -10 -10 -9 0 -13 5 -10 10 3 6 8 10 10 10 2 0 7 -4 10 -10z"/>
<path d="M3420 5710 c0 -5 5 -10 11 -10 5 0 7 5 4 10 -3 6 -8 10 -11 10 -2 0
-4 -4 -4 -10z"/>
<path d="M2935 5250 c-7 -12 2 -12 30 0 19 8 19 9 -2 9 -12 1 -25 -3 -28 -9z"/>
<path d="M3240 4999 c0 -5 5 -7 10 -4 6 3 10 8 10 11 0 2 -4 4 -10 4 -5 0 -10
-5 -10 -11z"/>
<path d="M3205 4960 c3 -5 8 -10 11 -10 2 0 4 5 4 10 0 6 -5 10 -11 10 -5 0
-7 -4 -4 -10z"/>
<path d="M3488 4483 c7 -3 16 -2 19 1 4 3 -2 6 -13 5 -11 0 -14 -3 -6 -6z"/>
<path d="M4566 2302 c-3 -5 1 -9 9 -9 8 0 15 4 15 9 0 4 -4 8 -9 8 -6 0 -12
-4 -15 -8z"/>
<path d="M4550 2246 c0 -8 4 -18 10 -21 5 -3 7 0 4 9 -4 9 2 16 18 19 21 4 20
4 -4 6 -18 1 -28 -4 -28 -13z"/>
<path d="M4527 2197 c-3 -8 1 -14 9 -14 8 0 14 6 14 14 0 7 -4 13 -9 13 -5 0
-11 -6 -14 -13z"/>
<path d="M4520 1999 c0 -5 5 -7 10 -4 6 3 10 8 10 11 0 2 -4 4 -10 4 -5 0 -10
-5 -10 -11z"/>
</g>
</svg>
